<svg width="300" height="232" viewBox="0 0 300 232" fill="none" xmlns="http://www.w3.org/2000/svg">
<g id="Group 7">
<g id="Group 1">
<g id="Rectangle 1">
<rect x="226" width="74" height="59" rx="2" fill="white"/>
<rect x="226.25" y="0.25" width="73.5" height="58.5" rx="1.75" stroke="#2182DB" stroke-opacity="0.64" stroke-width="0.5"/>
</g>
<path id="ECom" d="M251.173 28.116V28.872H252.325L253.465 28.752L253.369 29.652H251.173V30.636L251.281 32.16H252.865L254.173 32.016L254.053 33.072L252.745 33H251.341L249.997 33.072L250.165 30.624V28.104L249.997 25.74H254.065L253.957 26.724L252.613 26.58H251.281L251.173 28.116ZM258.92 33.18C257.832 33.18 256.976 32.852 256.352 32.196C255.736 31.54 255.428 30.628 255.428 29.46C255.428 28.292 255.784 27.352 256.496 26.64C257.208 25.92 258.156 25.56 259.34 25.56C259.948 25.56 260.576 25.68 261.224 25.92L260.84 27.18L259.376 26.388C258.352 26.388 257.64 26.604 257.24 27.036C256.84 27.468 256.64 28.196 256.64 29.22C256.64 30.236 256.848 31.02 257.264 31.572C257.688 32.116 258.236 32.388 258.908 32.388C259.58 32.388 260.244 32.116 260.9 31.572L261.284 32.616C260.564 32.992 259.776 33.18 258.92 33.18ZM264.833 33.18C264.089 33.18 263.509 32.944 263.093 32.472C262.685 32 262.481 31.328 262.481 30.456C262.481 29.576 262.701 28.872 263.141 28.344C263.581 27.816 264.173 27.552 264.917 27.552C265.669 27.552 266.249 27.788 266.657 28.26C267.073 28.724 267.281 29.396 267.281 30.276C267.281 31.148 267.061 31.852 266.621 32.388C266.181 32.916 265.585 33.18 264.833 33.18ZM265.013 32.448C265.253 32.448 265.509 32.408 265.781 32.328C266.045 31.952 266.177 31.36 266.177 30.552C266.177 29.736 266.057 29.156 265.817 28.812C265.585 28.46 265.221 28.284 264.725 28.284C264.541 28.284 264.293 28.324 263.981 28.404C263.717 28.772 263.585 29.364 263.585 30.18C263.585 30.996 263.697 31.58 263.921 31.932C264.153 32.276 264.517 32.448 265.013 32.448ZM272.933 28.824L272.957 29.208V33L271.781 33.06L271.949 30.456V29.196C271.949 28.9 271.901 28.692 271.805 28.572C271.717 28.444 271.565 28.38 271.349 28.38C270.861 28.38 270.353 28.528 269.825 28.824V33H268.673L268.841 30.624V28.932L268.661 27.696L269.825 27.576V28.188C270.465 27.764 271.101 27.552 271.733 27.552C272.245 27.552 272.601 27.788 272.801 28.26C273.505 27.788 274.185 27.552 274.841 27.552C275.241 27.552 275.545 27.696 275.753 27.984C275.961 28.264 276.065 28.672 276.065 29.208V33L274.889 33.06L275.057 30.456V29.196C275.057 28.9 275.009 28.692 274.913 28.572C274.825 28.444 274.673 28.38 274.457 28.38C273.969 28.38 273.461 28.528 272.933 28.824Z" fill="#D9D9D9"/>
</g>
<g id="Group 3">
<g id="Rectangle 1_2">
<rect x="113" width="74" height="59" rx="2" fill="white"/>
<rect x="113.25" y="0.25" width="73.5" height="58.5" rx="1.75" stroke="#FF0080" stroke-opacity="0.49" stroke-width="0.5"/>
</g>
<path id="Cryto" d="M141.451 33.18C140.363 33.18 139.507 32.852 138.883 32.196C138.267 31.54 137.959 30.628 137.959 29.46C137.959 28.292 138.315 27.352 139.027 26.64C139.739 25.92 140.687 25.56 141.871 25.56C142.479 25.56 143.107 25.68 143.755 25.92L143.371 27.18L141.907 26.388C140.883 26.388 140.171 26.604 139.771 27.036C139.371 27.468 139.171 28.196 139.171 29.22C139.171 30.236 139.379 31.02 139.795 31.572C140.219 32.116 140.767 32.388 141.439 32.388C142.111 32.388 142.775 32.116 143.431 31.572L143.815 32.616C143.095 32.992 142.307 33.18 141.451 33.18ZM145.204 33L145.372 30.624V28.944L145.192 27.708L146.404 27.588L146.356 28.488C146.636 28.152 146.884 27.912 147.1 27.768C147.316 27.624 147.54 27.552 147.772 27.552C148.012 27.552 148.248 27.604 148.48 27.708L148.156 28.74L147.076 28.416C146.78 28.68 146.52 29.016 146.296 29.424V30.636L146.428 33H145.204ZM148.6 34.332L149.764 34.224C150.076 33.792 150.344 33.344 150.568 32.88L148.54 27.732L149.824 27.648L149.968 28.776L151.048 31.752C151.408 30.824 151.756 29.88 152.092 28.92L152.224 27.732H153.472L151.684 32.292C151.26 33.38 150.84 34.156 150.424 34.62C150.016 35.084 149.52 35.344 148.936 35.4L148.6 34.332ZM153.865 28.368L153.829 27.9L154.909 27.552L155.305 26.184H155.821L155.893 27.552H157.405L157.369 28.188L155.857 28.296V31.284C155.857 31.708 155.897 32.004 155.977 32.172C156.065 32.332 156.233 32.412 156.481 32.412C156.737 32.412 157.009 32.372 157.297 32.292L157.189 32.976C156.917 33.112 156.561 33.18 156.121 33.18C155.681 33.18 155.353 33.06 155.137 32.82C154.929 32.58 154.825 32.168 154.825 31.584C154.825 31.384 154.849 30.312 154.897 28.368H153.865ZM160.653 33.18C159.909 33.18 159.329 32.944 158.913 32.472C158.505 32 158.301 31.328 158.301 30.456C158.301 29.576 158.521 28.872 158.961 28.344C159.401 27.816 159.993 27.552 160.737 27.552C161.489 27.552 162.069 27.788 162.477 28.26C162.893 28.724 163.101 29.396 163.101 30.276C163.101 31.148 162.881 31.852 162.441 32.388C162.001 32.916 161.405 33.18 160.653 33.18ZM160.833 32.448C161.073 32.448 161.329 32.408 161.601 32.328C161.865 31.952 161.997 31.36 161.997 30.552C161.997 29.736 161.877 29.156 161.637 28.812C161.405 28.46 161.041 28.284 160.545 28.284C160.361 28.284 160.113 28.324 159.801 28.404C159.537 28.772 159.405 29.364 159.405 30.18C159.405 30.996 159.517 31.58 159.741 31.932C159.973 32.276 160.337 32.448 160.833 32.448Z" fill="#D9D9D9"/>
</g>
<g id="Group 2">
<rect id="Rectangle 1_3" x="0.25" y="0.25" width="73.5" height="58.5" rx="1.75" fill="white" stroke="#8F94FB" stroke-width="0.5"/>
<path id="SaaS" d="M26.6873 32.796L27.0953 31.584C27.5593 31.888 27.9353 32.096 28.2233 32.208C28.5193 32.32 28.8233 32.376 29.1353 32.376C29.6633 32.376 30.0793 32.216 30.3833 31.896C30.4073 31.776 30.4193 31.652 30.4193 31.524C30.4193 31.148 30.2913 30.832 30.0353 30.576C29.7873 30.32 29.4833 30.116 29.1233 29.964C28.7713 29.812 28.4153 29.652 28.0553 29.484C27.6953 29.316 27.3873 29.076 27.1313 28.764C26.8833 28.452 26.7593 28.064 26.7593 27.6C26.7593 27 27.0073 26.516 27.5033 26.148C28.0073 25.78 28.6673 25.596 29.4833 25.596C30.0513 25.596 30.5833 25.708 31.0793 25.932L30.7313 27.06C30.0593 26.612 29.5033 26.388 29.0633 26.388C28.6313 26.388 28.1953 26.524 27.7553 26.796C27.7553 27.268 27.8793 27.656 28.1273 27.96C28.3753 28.256 28.6793 28.484 29.0393 28.644C29.3993 28.804 29.7553 28.964 30.1073 29.124C30.4673 29.284 30.7713 29.516 31.0193 29.82C31.2673 30.116 31.3913 30.5 31.3913 30.972C31.3913 31.612 31.1313 32.14 30.6113 32.556C30.0993 32.972 29.4793 33.18 28.7513 33.18C28.0233 33.18 27.3353 33.052 26.6873 32.796ZM34.1268 33.18C33.6148 33.18 33.2188 33.044 32.9388 32.772C32.6668 32.492 32.5308 32.112 32.5308 31.632C32.5308 31.152 32.7268 30.796 33.1188 30.564C33.5108 30.332 34.3348 30.1 35.5908 29.868C35.5908 29.26 35.5228 28.84 35.3868 28.608C35.2508 28.376 35.0068 28.26 34.6548 28.26C34.4628 28.26 34.3108 28.268 34.1988 28.284L33.1908 29.172L32.6508 28.272C33.2668 27.784 33.9548 27.54 34.7148 27.54C35.9708 27.54 36.5988 28.172 36.5988 29.436V31.656L36.8148 33.012L35.6988 33.18L35.6508 32.58C35.1548 32.98 34.6468 33.18 34.1268 33.18ZM33.5508 31.584C33.5508 31.848 33.6308 32.056 33.7908 32.208C33.9588 32.36 34.2148 32.436 34.5588 32.436C34.9108 32.436 35.2548 32.312 35.5908 32.064V30.552C34.8228 30.664 34.1708 30.836 33.6348 31.068C33.5788 31.284 33.5508 31.456 33.5508 31.584ZM39.576 33.18C39.064 33.18 38.668 33.044 38.388 32.772C38.116 32.492 37.98 32.112 37.98 31.632C37.98 31.152 38.176 30.796 38.568 30.564C38.96 30.332 39.784 30.1 41.04 29.868C41.04 29.26 40.972 28.84 40.836 28.608C40.7 28.376 40.456 28.26 40.104 28.26C39.912 28.26 39.76 28.268 39.648 28.284L38.64 29.172L38.1 28.272C38.716 27.784 39.404 27.54 40.164 27.54C41.42 27.54 42.048 28.172 42.048 29.436V31.656L42.264 33.012L41.148 33.18L41.1 32.58C40.604 32.98 40.096 33.18 39.576 33.18ZM39 31.584C39 31.848 39.08 32.056 39.24 32.208C39.408 32.36 39.664 32.436 40.008 32.436C40.36 32.436 40.704 32.312 41.04 32.064V30.552C40.272 30.664 39.62 30.836 39.084 31.068C39.028 31.284 39 31.456 39 31.584ZM43.6092 32.796L44.0172 31.584C44.4812 31.888 44.8572 32.096 45.1452 32.208C45.4412 32.32 45.7452 32.376 46.0572 32.376C46.5852 32.376 47.0012 32.216 47.3052 31.896C47.3292 31.776 47.3412 31.652 47.3412 31.524C47.3412 31.148 47.2132 30.832 46.9572 30.576C46.7092 30.32 46.4052 30.116 46.0452 29.964C45.6932 29.812 45.3372 29.652 44.9772 29.484C44.6172 29.316 44.3092 29.076 44.0532 28.764C43.8052 28.452 43.6812 28.064 43.6812 27.6C43.6812 27 43.9292 26.516 44.4252 26.148C44.9292 25.78 45.5892 25.596 46.4052 25.596C46.9732 25.596 47.5052 25.708 48.0012 25.932L47.6532 27.06C46.9812 26.612 46.4252 26.388 45.9852 26.388C45.5532 26.388 45.1172 26.524 44.6772 26.796C44.6772 27.268 44.8012 27.656 45.0492 27.96C45.2972 28.256 45.6012 28.484 45.9612 28.644C46.3212 28.804 46.6772 28.964 47.0292 29.124C47.3892 29.284 47.6932 29.516 47.9412 29.82C48.1892 30.116 48.3132 30.5 48.3132 30.972C48.3132 31.612 48.0532 32.14 47.5332 32.556C47.0212 32.972 46.4012 33.18 45.6732 33.18C44.9452 33.18 44.2572 33.052 43.6092 32.796Z" fill="#D9D9D9"/>
</g>
<g id="Group 4">
<rect id="Rectangle 1_4" x="1.25" y="173.25" width="73.5" height="58.5" rx="1.75" fill="#5B1E98" stroke="#300D79" stroke-width="0.5"/>
<path id="Plateforme" d="M14.7078 203L14.6718 202.532C15.3678 202.532 15.8678 202.412 16.1718 202.172C16.4758 201.932 16.6278 201.532 16.6278 200.972C16.6278 199.844 16.0998 199.28 15.0438 199.28C14.8758 199.28 14.6598 199.3 14.3958 199.34L14.2758 201.116V203.636L14.4438 206H13.0998L13.2678 203.624V200.396L13.0518 198.812C14.0438 198.644 14.7918 198.56 15.2958 198.56C16.9678 198.56 17.8038 199.324 17.8038 200.852C17.8038 201.476 17.6358 201.98 17.2998 202.364C16.9718 202.74 16.4998 202.972 15.8838 203.06L14.7078 203ZM19.1416 206L19.3096 203.624V199.196L19.1296 197.96L20.4256 197.84L20.2936 200.192V203.636L20.4256 206H19.1416ZM23.3319 206.18C22.8199 206.18 22.4239 206.044 22.1439 205.772C21.8719 205.492 21.7359 205.112 21.7359 204.632C21.7359 204.152 21.9319 203.796 22.3239 203.564C22.7159 203.332 23.5399 203.1 24.7959 202.868C24.7959 202.26 24.7279 201.84 24.5919 201.608C24.4559 201.376 24.2119 201.26 23.8599 201.26C23.6679 201.26 23.5159 201.268 23.4039 201.284L22.3959 202.172L21.8559 201.272C22.4719 200.784 23.1599 200.54 23.9199 200.54C25.1759 200.54 25.8039 201.172 25.8039 202.436V204.656L26.0199 206.012L24.9039 206.18L24.8559 205.58C24.3599 205.98 23.8519 206.18 23.3319 206.18ZM22.7559 204.584C22.7559 204.848 22.8359 205.056 22.9959 205.208C23.1639 205.36 23.4199 205.436 23.7639 205.436C24.1159 205.436 24.4599 205.312 24.7959 205.064V203.552C24.0279 203.664 23.3759 203.836 22.8399 204.068C22.7839 204.284 22.7559 204.456 22.7559 204.584ZM27.0411 201.368L27.0051 200.9L28.0851 200.552L28.4811 199.184H28.9971L29.0691 200.552H30.5811L30.5451 201.188L29.0331 201.296V204.284C29.0331 204.708 29.0731 205.004 29.1531 205.172C29.2411 205.332 29.4091 205.412 29.6571 205.412C29.9131 205.412 30.1851 205.372 30.4731 205.292L30.3651 205.976C30.0931 206.112 29.7371 206.18 29.2971 206.18C28.8571 206.18 28.5291 206.06 28.3131 205.82C28.1051 205.58 28.0011 205.168 28.0011 204.584C28.0011 204.384 28.0251 203.312 28.0731 201.368H27.0411ZM33.925 206.18C33.205 206.18 32.617 205.94 32.161 205.46C31.705 204.98 31.477 204.32 31.477 203.48C31.477 202.632 31.709 201.932 32.173 201.38C32.637 200.828 33.201 200.552 33.865 200.552C34.537 200.552 35.041 200.716 35.377 201.044C35.713 201.372 35.881 201.832 35.881 202.424C35.881 202.64 35.861 202.9 35.821 203.204L32.581 203.312C32.581 203.992 32.697 204.52 32.929 204.896C33.169 205.264 33.505 205.448 33.937 205.448C34.505 205.448 35.029 205.244 35.509 204.836L35.833 205.724C35.289 206.028 34.653 206.18 33.925 206.18ZM32.605 202.688L34.789 202.592C34.781 202.104 34.701 201.764 34.549 201.572C34.397 201.38 34.149 201.284 33.805 201.284C33.461 201.284 33.193 201.32 33.001 201.392C32.801 201.608 32.669 202.04 32.605 202.688ZM36.6345 201.548L36.5985 201.08L37.7025 200.732V200.516C37.7025 199.66 37.9025 198.984 38.3025 198.488C38.7025 197.992 39.2465 197.744 39.9345 197.744C40.2865 197.744 40.6225 197.804 40.9425 197.924L40.6545 198.86L39.6225 198.464C39.2785 198.528 39.0345 198.7 38.8905 198.98C38.7545 199.252 38.6865 199.696 38.6865 200.312V200.732H40.1745L40.1385 201.368L38.6865 201.476V203.636L38.8185 206H37.5345L37.7025 203.624V201.548H36.6345ZM43.1688 206.18C42.4248 206.18 41.8448 205.944 41.4288 205.472C41.0208 205 40.8168 204.328 40.8168 203.456C40.8168 202.576 41.0368 201.872 41.4768 201.344C41.9168 200.816 42.5088 200.552 43.2528 200.552C44.0048 200.552 44.5848 200.788 44.9928 201.26C45.4088 201.724 45.6168 202.396 45.6168 203.276C45.6168 204.148 45.3968 204.852 44.9568 205.388C44.5168 205.916 43.9208 206.18 43.1688 206.18ZM43.3488 205.448C43.5888 205.448 43.8448 205.408 44.1168 205.328C44.3808 204.952 44.5128 204.36 44.5128 203.552C44.5128 202.736 44.3928 202.156 44.1528 201.812C43.9208 201.46 43.5568 201.284 43.0608 201.284C42.8768 201.284 42.6288 201.324 42.3168 201.404C42.0528 201.772 41.9208 202.364 41.9208 203.18C41.9208 203.996 42.0328 204.58 42.2568 204.932C42.4888 205.276 42.8528 205.448 43.3488 205.448ZM47.0088 206L47.1768 203.624V201.944L46.9968 200.708L48.2088 200.588L48.1608 201.488C48.4408 201.152 48.6888 200.912 48.9048 200.768C49.1208 200.624 49.3448 200.552 49.5768 200.552C49.8168 200.552 50.0528 200.604 50.2848 200.708L49.9608 201.74L48.8808 201.416C48.5848 201.68 48.3248 202.016 48.1008 202.424V203.636L48.2328 206H47.0088ZM55.2766 201.824L55.3006 202.208V206L54.1246 206.06L54.2926 203.456V202.196C54.2926 201.9 54.2446 201.692 54.1486 201.572C54.0606 201.444 53.9086 201.38 53.6926 201.38C53.2046 201.38 52.6966 201.528 52.1686 201.824V206H51.0166L51.1846 203.624V201.932L51.0046 200.696L52.1686 200.576V201.188C52.8086 200.764 53.4446 200.552 54.0766 200.552C54.5886 200.552 54.9446 200.788 55.1446 201.26C55.8486 200.788 56.5286 200.552 57.1846 200.552C57.5846 200.552 57.8886 200.696 58.0966 200.984C58.3046 201.264 58.4086 201.672 58.4086 202.208V206L57.2326 206.06L57.4006 203.456V202.196C57.4006 201.9 57.3526 201.692 57.2566 201.572C57.1686 201.444 57.0166 201.38 56.8006 201.38C56.3126 201.38 55.8046 201.528 55.2766 201.824ZM62.3546 206.18C61.6346 206.18 61.0466 205.94 60.5906 205.46C60.1346 204.98 59.9066 204.32 59.9066 203.48C59.9066 202.632 60.1386 201.932 60.6026 201.38C61.0666 200.828 61.6306 200.552 62.2946 200.552C62.9666 200.552 63.4706 200.716 63.8066 201.044C64.1426 201.372 64.3106 201.832 64.3106 202.424C64.3106 202.64 64.2906 202.9 64.2506 203.204L61.0106 203.312C61.0106 203.992 61.1266 204.52 61.3586 204.896C61.5986 205.264 61.9346 205.448 62.3666 205.448C62.9346 205.448 63.4586 205.244 63.9386 204.836L64.2626 205.724C63.7186 206.028 63.0826 206.18 62.3546 206.18ZM61.0346 202.688L63.2186 202.592C63.2106 202.104 63.1306 201.764 62.9786 201.572C62.8266 201.38 62.5786 201.284 62.2346 201.284C61.8906 201.284 61.6226 201.32 61.4306 201.392C61.2306 201.608 61.0986 202.04 61.0346 202.688Z" fill="#D9D9D9"/>
</g>
<g id="Group 5">
<rect id="Rectangle 1_5" x="116.25" y="173.25" width="73.5" height="58.5" rx="1.75" fill="#790941" stroke="#790941" stroke-width="0.5"/>
<path id="Paiement" d="M133.634 203L133.598 202.532C134.294 202.532 134.794 202.412 135.098 202.172C135.402 201.932 135.554 201.532 135.554 200.972C135.554 199.844 135.026 199.28 133.97 199.28C133.802 199.28 133.586 199.3 133.322 199.34L133.202 201.116V203.636L133.37 206H132.026L132.194 203.624V200.396L131.978 198.812C132.97 198.644 133.718 198.56 134.222 198.56C135.894 198.56 136.73 199.324 136.73 200.852C136.73 201.476 136.562 201.98 136.226 202.364C135.898 202.74 135.426 202.972 134.81 203.06L133.634 203ZM139.351 206.18C138.839 206.18 138.443 206.044 138.163 205.772C137.891 205.492 137.755 205.112 137.755 204.632C137.755 204.152 137.951 203.796 138.343 203.564C138.735 203.332 139.559 203.1 140.815 202.868C140.815 202.26 140.747 201.84 140.611 201.608C140.475 201.376 140.231 201.26 139.879 201.26C139.687 201.26 139.535 201.268 139.423 201.284L138.415 202.172L137.875 201.272C138.491 200.784 139.179 200.54 139.939 200.54C141.195 200.54 141.823 201.172 141.823 202.436V204.656L142.039 206.012L140.923 206.18L140.875 205.58C140.379 205.98 139.871 206.18 139.351 206.18ZM138.775 204.584C138.775 204.848 138.855 205.056 139.015 205.208C139.183 205.36 139.439 205.436 139.783 205.436C140.135 205.436 140.479 205.312 140.815 205.064V203.552C140.047 203.664 139.395 203.836 138.859 204.068C138.803 204.284 138.775 204.456 138.775 204.584ZM143.421 206L143.589 203.624V201.944L143.409 200.708L144.645 200.588L144.513 202.94V203.636L144.645 206H143.421ZM143.253 198.764C143.501 198.42 143.769 198.152 144.057 197.96C144.369 198.192 144.637 198.46 144.861 198.764C144.629 199.1 144.361 199.368 144.057 199.568C143.745 199.368 143.477 199.1 143.253 198.764ZM148.515 206.18C147.795 206.18 147.207 205.94 146.751 205.46C146.295 204.98 146.067 204.32 146.067 203.48C146.067 202.632 146.299 201.932 146.763 201.38C147.227 200.828 147.791 200.552 148.455 200.552C149.127 200.552 149.631 200.716 149.967 201.044C150.303 201.372 150.471 201.832 150.471 202.424C150.471 202.64 150.451 202.9 150.411 203.204L147.171 203.312C147.171 203.992 147.287 204.52 147.519 204.896C147.759 205.264 148.095 205.448 148.527 205.448C149.095 205.448 149.619 205.244 150.099 204.836L150.423 205.724C149.879 206.028 149.243 206.18 148.515 206.18ZM147.195 202.688L149.379 202.592C149.371 202.104 149.291 201.764 149.139 201.572C148.987 201.38 148.739 201.284 148.395 201.284C148.051 201.284 147.783 201.32 147.591 201.392C147.391 201.608 147.259 202.04 147.195 202.688ZM156.12 201.824L156.144 202.208V206L154.968 206.06L155.136 203.456V202.196C155.136 201.9 155.088 201.692 154.992 201.572C154.904 201.444 154.752 201.38 154.536 201.38C154.048 201.38 153.54 201.528 153.012 201.824V206H151.86L152.028 203.624V201.932L151.848 200.696L153.012 200.576V201.188C153.652 200.764 154.288 200.552 154.92 200.552C155.432 200.552 155.788 200.788 155.988 201.26C156.692 200.788 157.372 200.552 158.028 200.552C158.428 200.552 158.732 200.696 158.94 200.984C159.148 201.264 159.252 201.672 159.252 202.208V206L158.076 206.06L158.244 203.456V202.196C158.244 201.9 158.196 201.692 158.1 201.572C158.012 201.444 157.86 201.38 157.644 201.38C157.156 201.38 156.648 201.528 156.12 201.824ZM163.198 206.18C162.478 206.18 161.89 205.94 161.434 205.46C160.978 204.98 160.75 204.32 160.75 203.48C160.75 202.632 160.982 201.932 161.446 201.38C161.91 200.828 162.474 200.552 163.138 200.552C163.81 200.552 164.314 200.716 164.65 201.044C164.986 201.372 165.154 201.832 165.154 202.424C165.154 202.64 165.134 202.9 165.094 203.204L161.854 203.312C161.854 203.992 161.97 204.52 162.202 204.896C162.442 205.264 162.778 205.448 163.21 205.448C163.778 205.448 164.302 205.244 164.782 204.836L165.106 205.724C164.562 206.028 163.926 206.18 163.198 206.18ZM161.878 202.688L164.062 202.592C164.054 202.104 163.974 201.764 163.822 201.572C163.67 201.38 163.422 201.284 163.078 201.284C162.734 201.284 162.466 201.32 162.274 201.392C162.074 201.608 161.942 202.04 161.878 202.688ZM166.544 206L166.712 203.624V201.932L166.532 200.696L167.696 200.576V201.188C168.344 200.764 168.996 200.552 169.652 200.552C170.06 200.552 170.372 200.696 170.588 200.984C170.804 201.264 170.912 201.672 170.912 202.208V206L169.736 206.06L169.904 203.48V202.196C169.904 201.9 169.856 201.692 169.76 201.572C169.664 201.444 169.504 201.38 169.28 201.38C168.792 201.38 168.264 201.528 167.696 201.824V206H166.544ZM172.147 201.368L172.111 200.9L173.191 200.552L173.587 199.184H174.103L174.175 200.552H175.687L175.651 201.188L174.139 201.296V204.284C174.139 204.708 174.179 205.004 174.259 205.172C174.347 205.332 174.515 205.412 174.763 205.412C175.019 205.412 175.291 205.372 175.579 205.292L175.471 205.976C175.199 206.112 174.843 206.18 174.403 206.18C173.963 206.18 173.635 206.06 173.419 205.82C173.211 205.58 173.107 205.168 173.107 204.584C173.107 204.384 173.131 203.312 173.179 201.368H172.147Z" fill="#D9D9D9"/>
</g>
<g id="Group 6">
<g id="Rectangle 1_6">
<rect x="226" y="173" width="74" height="59" rx="2" fill="#0A3F70" fill-opacity="0.99"/>
<rect x="226.25" y="173.25" width="73.5" height="58.5" rx="1.75" stroke="#0A3F70" stroke-opacity="0.99" stroke-width="0.5"/>
</g>
<path id="Facturation" d="M238.504 199.58L238.396 201.116V202.016H239.548L240.688 201.896L240.592 202.796H238.396V203.636L238.564 206H237.22L237.388 203.624V201.104L237.22 198.74H241.288L241.18 199.724L239.836 199.58H238.504ZM243.609 206.18C243.097 206.18 242.701 206.044 242.421 205.772C242.149 205.492 242.013 205.112 242.013 204.632C242.013 204.152 242.209 203.796 242.601 203.564C242.993 203.332 243.817 203.1 245.073 202.868C245.073 202.26 245.005 201.84 244.869 201.608C244.733 201.376 244.489 201.26 244.137 201.26C243.945 201.26 243.793 201.268 243.681 201.284L242.673 202.172L242.133 201.272C242.749 200.784 243.437 200.54 244.197 200.54C245.453 200.54 246.081 201.172 246.081 202.436V204.656L246.297 206.012L245.181 206.18L245.133 205.58C244.637 205.98 244.129 206.18 243.609 206.18ZM243.033 204.584C243.033 204.848 243.113 205.056 243.273 205.208C243.441 205.36 243.697 205.436 244.041 205.436C244.393 205.436 244.737 205.312 245.073 205.064V203.552C244.305 203.664 243.653 203.836 243.117 204.068C243.061 204.284 243.033 204.456 243.033 204.584ZM249.898 206.18C249.234 206.18 248.682 205.936 248.242 205.448C247.802 204.952 247.582 204.284 247.582 203.444C247.582 202.604 247.83 201.912 248.326 201.368C248.822 200.824 249.474 200.552 250.282 200.552C250.85 200.552 251.318 200.644 251.686 200.828L251.362 201.86L249.874 201.272C249.45 201.32 249.146 201.508 248.962 201.836C248.778 202.164 248.686 202.668 248.686 203.348C248.686 204.02 248.798 204.54 249.022 204.908C249.254 205.268 249.586 205.448 250.018 205.448C250.458 205.448 250.93 205.244 251.434 204.836L251.758 205.724C251.19 206.028 250.57 206.18 249.898 206.18ZM252.451 201.368L252.415 200.9L253.495 200.552L253.891 199.184H254.407L254.479 200.552H255.991L255.955 201.188L254.443 201.296V204.284C254.443 204.708 254.483 205.004 254.563 205.172C254.651 205.332 254.819 205.412 255.067 205.412C255.323 205.412 255.595 205.372 255.883 205.292L255.775 205.976C255.503 206.112 255.147 206.18 254.707 206.18C254.267 206.18 253.939 206.06 253.723 205.82C253.515 205.58 253.411 205.168 253.411 204.584C253.411 204.384 253.435 203.312 253.483 201.368H252.451ZM257.187 204.524V200.756L258.363 200.696L258.195 203.276V204.536C258.195 204.832 258.243 205.044 258.339 205.172C258.435 205.292 258.595 205.352 258.819 205.352C259.299 205.352 259.827 205.204 260.403 204.908L260.259 200.756L261.411 200.696V204.788L261.591 206.024L260.403 206.144V205.544C259.755 205.968 259.103 206.18 258.447 206.18C258.039 206.18 257.727 206.04 257.511 205.76C257.295 205.472 257.187 205.06 257.187 204.524ZM263.103 206L263.271 203.624V201.944L263.091 200.708L264.303 200.588L264.255 201.488C264.535 201.152 264.783 200.912 264.999 200.768C265.215 200.624 265.439 200.552 265.671 200.552C265.911 200.552 266.147 200.604 266.379 200.708L266.055 201.74L264.975 201.416C264.679 201.68 264.419 202.016 264.195 202.424V203.636L264.327 206H263.103ZM268.394 206.18C267.882 206.18 267.486 206.044 267.206 205.772C266.934 205.492 266.798 205.112 266.798 204.632C266.798 204.152 266.994 203.796 267.386 203.564C267.778 203.332 268.602 203.1 269.858 202.868C269.858 202.26 269.79 201.84 269.654 201.608C269.518 201.376 269.274 201.26 268.922 201.26C268.73 201.26 268.578 201.268 268.466 201.284L267.458 202.172L266.918 201.272C267.534 200.784 268.222 200.54 268.982 200.54C270.238 200.54 270.866 201.172 270.866 202.436V204.656L271.082 206.012L269.966 206.18L269.918 205.58C269.422 205.98 268.914 206.18 268.394 206.18ZM267.818 204.584C267.818 204.848 267.898 205.056 268.058 205.208C268.226 205.36 268.482 205.436 268.826 205.436C269.178 205.436 269.522 205.312 269.858 205.064V203.552C269.09 203.664 268.438 203.836 267.902 204.068C267.846 204.284 267.818 204.456 267.818 204.584ZM272.104 201.368L272.068 200.9L273.148 200.552L273.544 199.184H274.06L274.132 200.552H275.644L275.608 201.188L274.096 201.296V204.284C274.096 204.708 274.136 205.004 274.216 205.172C274.304 205.332 274.472 205.412 274.72 205.412C274.976 205.412 275.248 205.372 275.536 205.292L275.428 205.976C275.156 206.112 274.8 206.18 274.36 206.18C273.92 206.18 273.592 206.06 273.376 205.82C273.168 205.58 273.064 205.168 273.064 204.584C273.064 204.384 273.088 203.312 273.136 201.368H272.104ZM276.635 206L276.803 203.624V201.944L276.623 200.708L277.859 200.588L277.727 202.94V203.636L277.859 206H276.635ZM276.467 198.764C276.715 198.42 276.983 198.152 277.271 197.96C277.583 198.192 277.851 198.46 278.075 198.764C277.843 199.1 277.575 199.368 277.271 199.568C276.959 199.368 276.691 199.1 276.467 198.764ZM281.634 206.18C280.89 206.18 280.31 205.944 279.894 205.472C279.486 205 279.282 204.328 279.282 203.456C279.282 202.576 279.502 201.872 279.942 201.344C280.382 200.816 280.974 200.552 281.718 200.552C282.47 200.552 283.05 200.788 283.458 201.26C283.874 201.724 284.082 202.396 284.082 203.276C284.082 204.148 283.862 204.852 283.422 205.388C282.982 205.916 282.386 206.18 281.634 206.18ZM281.814 205.448C282.054 205.448 282.31 205.408 282.582 205.328C282.846 204.952 282.978 204.36 282.978 203.552C282.978 202.736 282.858 202.156 282.618 201.812C282.386 201.46 282.022 201.284 281.526 201.284C281.342 201.284 281.094 201.324 280.782 201.404C280.518 201.772 280.386 202.364 280.386 203.18C280.386 203.996 280.498 204.58 280.722 204.932C280.954 205.276 281.318 205.448 281.814 205.448ZM285.474 206L285.642 203.624V201.932L285.462 200.696L286.626 200.576V201.188C287.274 200.764 287.926 200.552 288.582 200.552C288.99 200.552 289.302 200.696 289.518 200.984C289.734 201.264 289.842 201.672 289.842 202.208V206L288.666 206.06L288.834 203.48V202.196C288.834 201.9 288.786 201.692 288.69 201.572C288.594 201.444 288.434 201.38 288.21 201.38C287.722 201.38 287.194 201.528 286.626 201.824V206H285.474Z" fill="#D9D9D9"/>
</g>
<line id="Line 1" x1="153.5" y1="58.9956" x2="154.5" y2="172.996" stroke="#FF0080" stroke-opacity="0.49"/>
<line id="Line 3" x1="37.5" y1="58.9956" x2="38.5" y2="172.996" stroke="#8F94FB"/>
<line id="Line 2" x1="263.5" y1="58.9956" x2="264.5" y2="172.996" stroke="#2182DB" stroke-opacity="0.64"/>
</g>
</svg>
